<svg xmlns="http://www.w3.org/2000/svg" viewBox="0 0 324939 333332" shape-rendering="geometricPrecision" text-rendering="geometricPrecision" image-rendering="optimizeQuality" fill-rule="evenodd" clip-rule="evenodd"><path d="M80870 161253c9868 17798 21234 34891 36036 50487 14803 15683 33218 29957 57096 42117 1762 881 3436 881 4934 264 2291-881 4582-2731 6873-5022 1763-1763 3965-4582 6256-7666 9164-12072 20530-27050 36566-19561 352 176 617 353 969 529l53483 30750c176 88 352 265 528 352 7049 4846 9956 12336 10045 20794 0 8635-3172 18326-7842 26521-6168 10837-15244 17974-25728 22732-9956 4581-21058 7049-31720 8635-16740 2467-32424 881-48460-4053-15683-4845-31455-12864-48725-23525l-1233-793c-7930-4934-16476-10220-24847-16476-30750-23174-62029-56655-82382-93485C5625 162927-3714 129533 1396 97726c2820-17446 10309-33305 23349-43791 11366-9163 26697-14185 46522-12423 2291 176 4317 1498 5374 3436l34275 57976c5023 6520 5639 12953 2908 19384-2291 5287-6872 10133-13129 14715-1850 1586-4052 3172-6344 4846-7665 5551-16388 11982-13393 19560l-87-176zM198209 1c-9548 0-17721 3361-24518 10083-6798 6722-10083 14894-10083 24518v60724c0 9624 3361 17797 10083 24518 6722 6722 14894 10082 24518 10082h28428c-1986 7637-4430 14894-7485 21692-2979 6875-8096 13443-15124 19707 13520-3513 25512-8784 36128-15735 10541-6874 19707-15505 27268-25664h22915c9548 0 17721-3437 24519-10082 6798-6721 10081-14894 10081-24518V34602c0-9548-3361-17721-10081-24518C308136 3286 299964 1 290339 1c-30710 0-61419 1-92130 1zm42819 91617h-45685c523-4861 2117-9447 4770-13730 2653-4296 7627-9365 14922-15204 4464-3581 7321-6294 8583-8153 1250-1859 1875-3622 1875-5288 0-1804-612-3346-1849-4627s-2793-1914-4668-1914c-1939 0-3533 661-4770 1983-1237 1336-2066 3663-2487 7023l-15228-1336c599-4641 1696-8249 3291-10852 1594-2603 3839-4586 6734-5977 2908-1391 6926-2079 12052-2079 5357 0 9515 661 12499 1983 2972 1308 5318 3333 7015 6059 1709 2740 2564 5798 2564 9185 0 3594-982 7037-2933 10329-1951 3278-5509 6885-10675 10810-3061 2286-5114 3898-6147 4806-1033 923-2245 2107-3648 3594h23786v13386zm32676-11072h-27702V67037l27702-35572h13239v36356h6887v12725h-6887v11072h-13239V80546zm0-12725V49147l-14629 18674h14629z" fill-rule="nonzero"/></svg>