<svg xmlns="http://www.w3.org/2000/svg" width="64" height="64" shape-rendering="geometricPrecision" text-rendering="geometricPrecision" image-rendering="optimizeQuality" fill-rule="evenodd" clip-rule="evenodd" viewBox="0 0 640 640"><path d="M203.636 290.956v69.875h115.513c-4.642 30-34.878 87.887-115.513 87.887-69.485 0-126.238-57.65-126.238-128.647 0-70.985 56.753-128.635 126.238-128.635 39.638 0 66 16.89 81.12 31.359l55.24-53.245c-35.528-33.13-81.485-53.257-136.36-53.257C90.98 116.423-.012 207.416-.012 320.06c0 112.643 90.993 203.648 203.648 203.648 117.486 0 195.522-82.642 195.522-199.006 0-13.358-1.477-23.646-3.236-33.756l-192.24.012h-.047zm436.375-5.882h-60v-60h-60.013v60h-60v60.013h60v60h60.012v-60h60.001v-60.013z"/></svg>