<svg xmlns="http://www.w3.org/2000/svg" width="64" height="64" shape-rendering="geometricPrecision" text-rendering="geometricPrecision" image-rendering="optimizeQuality" fill-rule="evenodd" clip-rule="evenodd" viewBox="0 0 640 640"><path d="M579.999 0H60C27 0 0 27 0 60v520c0 33 27 60 60 60h519.999c33 0 60-27 60-60V60c0-33-27-60-60-60zM239.991 479.994c-88.477 0-159.994-71.481-159.994-159.994s71.528-159.994 159.994-159.994c43.24 0 79.36 15.756 107.234 41.87l-43.524 41.765c-11.882-11.35-32.635-24.65-63.757-24.65-54.627 0-99.225 45.237-99.225 101.009s44.634 101.009 99.225 101.009c63.367 0 87.131-45.485 90.757-69h-90.733v-54.887h151.124c1.358 7.996 2.515 16.004 2.515 26.516 0 91.49-61.24 156.368-153.64 156.368l.024-.012zM560.003 320h-40.004v40.004h-40.005V320h-39.98v-40.004h39.98V239.99H520v40.005h40.004V320z"/></svg>